<?xml version="1.0" standalone="no"?>
<!DOCTYPE svg PUBLIC "-//W3C//DTD SVG 1.1//EN"
"http://www.w3.org/Graphics/SVG/1.1/DTD/svg11.dtd">

<svg width="368" height="222" view_box="0 0 368 222"
xmlns="http://www.w3.org/2000/svg"
xmlns:link="http://www.w3.org/1999/xlink">\n\n<desc>Généré par Mocodo 2.3.7 le Mon, 08 Feb 2021 02:03:42</desc>

<rect id="frame" x="0" y="0" width="368" height="222" fill="#f7f7f7" stroke="none" stroke-width="0"/>

<!-- Association POSSEDE -->
<line x1="64" y1="111" x2="188" y2="111" stroke="#7fbc41" stroke-width="2"/>
<text x="124" y="128.0" fill="#c51b7d" font-family="Verdana" font-size="12">1,1</text>
<line x1="308" y1="111" x2="188" y2="111" stroke="#7fbc41" stroke-width="2"/>
<text x="230" y="128.0" fill="#c51b7d" font-family="Verdana" font-size="12">0,N</text>
<g id="association-POSSEDE">
	<path d="M 211 86 a 14 14 90 0 1 14 14 V 111 h -74 V 100 a 14 14 90 0 1 14 -14" fill="#b8e186" stroke="#b8e186" stroke-width="0"/>
	<path d="M 225 111.0 v 11 a 14 14 90 0 1 -14 14 H 165 a 14 14 90 0 1 -14 -14 V 111.0 H 74" fill="#e6f5d0" stroke="#e6f5d0" stroke-width="0"/>
	<rect x="151" y="86" width="74" height="50" fill="none" rx="14" stroke="#7fbc41" stroke-width="2"/>
	<line x1="151" y1="111" x2="225" y2="111" stroke="#7fbc41" stroke-width="1"/>
	<text x="158" y="103.7" fill="#000000" font-family="Verdana" font-size="12">POSSEDE</text>
</g>

<!-- Entity UTILISATEURS -->
<g id="entity-UTILISATEURS">
	<g id="frame-UTILISATEURS">
		<rect x="257" y="43" width="102" height="25" fill="#f1b6da" stroke="#f1b6da" stroke-width="0"/>
		<rect x="257" y="68.0" width="102" height="111" fill="#fde0ef" stroke="#fde0ef" stroke-width="0"/>
		<rect x="257" y="43" width="102" height="136" fill="none" stroke="#de77ae" stroke-width="2"/>
		<line x1="257" y1="68" x2="359" y2="68" stroke="#de77ae" stroke-width="1"/>
	</g>
	<text x="262" y="60.7" fill="#000000" font-family="Verdana" font-size="12">UTILISATEURS</text>
	<text x="262" y="85.7" fill="#000000" font-family="Verdana" font-size="12">pseudo</text>
	<line x1="262" y1="88" x2="306" y2="88" stroke="#000000" stroke-width="1"/>
	<text x="262" y="102.7" fill="#000000" font-family="Verdana" font-size="12">email</text>
	<text x="262" y="119.8" fill="#000000" font-family="Verdana" font-size="12">avatar</text>
	<text x="262" y="136.8" fill="#000000" font-family="Verdana" font-size="12">password</text>
	<text x="262" y="153.8" fill="#000000" font-family="Verdana" font-size="12">created_at</text>
	<text x="262" y="170.8" fill="#000000" font-family="Verdana" font-size="12">updated_at</text>
</g>

<!-- Entity PLANTES -->
<g id="entity-PLANTES">
	<g id="frame-PLANTES">
		<rect x="9" y="9" width="110" height="25" fill="#f1b6da" stroke="#f1b6da" stroke-width="0"/>
		<rect x="9" y="34.0" width="110" height="179" fill="#fde0ef" stroke="#fde0ef" stroke-width="0"/>
		<rect x="9" y="9" width="110" height="204" fill="none" stroke="#de77ae" stroke-width="2"/>
		<line x1="9" y1="34" x2="119" y2="34" stroke="#de77ae" stroke-width="1"/>
	</g>
	<text x="36" y="26.7" fill="#000000" font-family="Verdana" font-size="12">PLANTES</text>
	<text x="14" y="51.7" fill="#000000" font-family="Verdana" font-size="12">nom</text>
	<line x1="14" y1="54" x2="42" y2="54" stroke="#000000" stroke-width="1"/>
	<text x="14" y="68.7" fill="#000000" font-family="Verdana" font-size="12">description</text>
	<text x="14" y="85.7" fill="#000000" font-family="Verdana" font-size="12">arrosage</text>
	<text x="14" y="102.7" fill="#000000" font-family="Verdana" font-size="12">luminosité</text>
	<text x="14" y="119.8" fill="#000000" font-family="Verdana" font-size="12">taille</text>
	<text x="14" y="136.8" fill="#000000" font-family="Verdana" font-size="12">fertilisation</text>
	<text x="14" y="153.8" fill="#000000" font-family="Verdana" font-size="12">rempotage</text>
	<text x="14" y="170.8" fill="#000000" font-family="Verdana" font-size="12">image</text>
	<text x="14" y="187.8" fill="#000000" font-family="Verdana" font-size="12">user_id</text>
	<text x="14" y="204.8" fill="#000000" font-family="Verdana" font-size="12">date_acquisition</text>
</g>
</svg>