<?xml version="1.0" standalone="no"?>
<!DOCTYPE svg PUBLIC "-//W3C//DTD SVG 1.1//EN"
"http://www.w3.org/Graphics/SVG/1.1/DTD/svg11.dtd">

<svg width="494" height="347" view_box="0 0 494 347"
xmlns="http://www.w3.org/2000/svg"
xmlns:link="http://www.w3.org/1999/xlink">\n\n<desc>Généré par Mocodo 2.3.7 le Tue, 09 Feb 2021 01:18:08</desc>

<rect id="frame" x="0" y="0" width="494" height="347" fill="#f5f5f5" stroke="none" stroke-width="0"/>

<!-- Association NEEDS -->
<line x1="32" y1="211" x2="116" y2="211" stroke="#35978f" stroke-width="2"/>
<text x="60" y="228.0" fill="#8c510a" font-family="Verdana" font-size="12">1,N</text>
<line x1="219" y1="211" x2="116" y2="211" stroke="#35978f" stroke-width="2"/>
<text x="153" y="228.0" fill="#8c510a" font-family="Verdana" font-size="12">1,1</text>
<g id="association-NEEDS">
	<path d="M 131 186 a 14 14 90 0 1 14 14 V 211 h -58 V 200 a 14 14 90 0 1 14 -14" fill="#80cdc1" stroke="#80cdc1" stroke-width="0"/>
	<path d="M 145 211.0 v 11 a 14 14 90 0 1 -14 14 H 101 a 14 14 90 0 1 -14 -14 V 211.0 H 58" fill="#c7eae5" stroke="#c7eae5" stroke-width="0"/>
	<rect x="87" y="186" width="58" height="50" fill="none" rx="14" stroke="#35978f" stroke-width="2"/>
	<line x1="87" y1="211" x2="145" y2="211" stroke="#35978f" stroke-width="1"/>
	<text x="94" y="203.7" fill="#000000" font-family="Verdana" font-size="12">NEEDS</text>
</g>

<!-- Association CALENDAR -->
<line x1="219" y1="211" x2="332" y2="211" stroke="#35978f" stroke-width="2"/>
<text x="264" y="228.0" fill="#8c510a" font-family="Verdana" font-size="12">1,1</text>
<line x1="445" y1="211" x2="332" y2="211" stroke="#35978f" stroke-width="2"/>
<text x="378" y="228.0" fill="#8c510a" font-family="Verdana" font-size="12">0,N</text>
<g id="association-CALENDAR">
	<path d="M 359 177 a 14 14 90 0 1 14 14 V 202 h -82 V 191 a 14 14 90 0 1 14 -14" fill="#80cdc1" stroke="#80cdc1" stroke-width="0"/>
	<path d="M 373 202.0 v 29 a 14 14 90 0 1 -14 14 H 305 a 14 14 90 0 1 -14 -14 V 202.0 H 82" fill="#c7eae5" stroke="#c7eae5" stroke-width="0"/>
	<rect x="291" y="177" width="82" height="68" fill="none" rx="14" stroke="#35978f" stroke-width="2"/>
	<line x1="291" y1="202" x2="373" y2="202" stroke="#35978f" stroke-width="1"/>
	<text x="298" y="194.7" fill="#000000" font-family="Verdana" font-size="12">CALENDAR</text>
	<text x="298" y="219.8" fill="#000000" font-family="Verdana" font-size="12">user_id</text>
	<text x="298" y="236.8" fill="#000000" font-family="Verdana" font-size="12">plants_id</text>
</g>

<!-- Association BELONGS TO -->
<line x1="219" y1="211" x2="219" y2="34" stroke="#35978f" stroke-width="2"/>
<text x="224.0" y="76" fill="#8c510a" font-family="Verdana" font-size="12">1,1</text>
<line x1="116" y1="34" x2="219" y2="34" stroke="#35978f" stroke-width="2"/>
<text x="144" y="51.0" fill="#8c510a" font-family="Verdana" font-size="12">1,N</text>
<g id="association-BELONGS TO">
	<path d="M 253 9 a 14 14 90 0 1 14 14 V 34 h -96 V 23 a 14 14 90 0 1 14 -14" fill="#80cdc1" stroke="#80cdc1" stroke-width="0"/>
	<path d="M 267 34.0 v 11 a 14 14 90 0 1 -14 14 H 185 a 14 14 90 0 1 -14 -14 V 34.0 H 96" fill="#c7eae5" stroke="#c7eae5" stroke-width="0"/>
	<rect x="171" y="9" width="96" height="50" fill="none" rx="14" stroke="#35978f" stroke-width="2"/>
	<line x1="171" y1="34" x2="267" y2="34" stroke="#35978f" stroke-width="1"/>
	<text x="178" y="26.7" fill="#000000" font-family="Verdana" font-size="12">BELONGS TO</text>
</g>

<!-- Entity PLANTS -->
<g id="entity-PLANTS">
	<g id="frame-PLANTS">
		<rect x="179" y="84" width="80" height="25" fill="#dfc27d" stroke="#dfc27d" stroke-width="0"/>
		<rect x="179" y="109.0" width="80" height="229" fill="#f6e8c3" stroke="#f6e8c3" stroke-width="0"/>
		<rect x="179" y="84" width="80" height="254" fill="none" stroke="#bf812d" stroke-width="2"/>
		<line x1="179" y1="109" x2="259" y2="109" stroke="#bf812d" stroke-width="1"/>
	</g>
	<text x="195" y="101.7" fill="#000000" font-family="Verdana" font-size="12">PLANTS</text>
	<text x="184" y="126.7" fill="#000000" font-family="Verdana" font-size="12">name</text>
	<line x1="184" y1="129" x2="219" y2="129" stroke="#000000" stroke-width="1"/>
	<text x="184" y="143.7" fill="#000000" font-family="Verdana" font-size="12">description</text>
	<text x="184" y="160.7" fill="#000000" font-family="Verdana" font-size="12">age</text>
	<text x="184" y="177.7" fill="#000000" font-family="Verdana" font-size="12">watering</text>
	<text x="184" y="194.7" fill="#000000" font-family="Verdana" font-size="12">light</text>
	<text x="184" y="211.8" fill="#000000" font-family="Verdana" font-size="12">cut</text>
	<text x="184" y="228.8" fill="#000000" font-family="Verdana" font-size="12">fertilization</text>
	<text x="184" y="245.8" fill="#000000" font-family="Verdana" font-size="12">repotting</text>
	<text x="184" y="262.8" fill="#000000" font-family="Verdana" font-size="12">picture</text>
	<text x="184" y="279.8" fill="#000000" font-family="Verdana" font-size="12">user_id</text>
	<text x="184" y="296.8" fill="#000000" font-family="Verdana" font-size="12">type_id</text>
	<text x="184" y="313.8" fill="#000000" font-family="Verdana" font-size="12">created_at</text>
	<text x="184" y="330.8" fill="#000000" font-family="Verdana" font-size="12">updated_at</text>
</g>

<!-- Entity SKILL -->
<g id="entity-SKILL">
	<g id="frame-SKILL">
		<rect x="9" y="186" width="46" height="25" fill="#dfc27d" stroke="#dfc27d" stroke-width="0"/>
		<rect x="9" y="211.0" width="46" height="25" fill="#f6e8c3" stroke="#f6e8c3" stroke-width="0"/>
		<rect x="9" y="186" width="46" height="50" fill="none" stroke="#bf812d" stroke-width="2"/>
		<line x1="9" y1="211" x2="55" y2="211" stroke="#bf812d" stroke-width="1"/>
	</g>
	<text x="14" y="203.7" fill="#000000" font-family="Verdana" font-size="12">SKILL</text>
	<text x="14" y="228.8" fill="#000000" font-family="Verdana" font-size="12">name</text>
	<line x1="14" y1="231" x2="49" y2="231" stroke="#000000" stroke-width="1"/>
</g>

<!-- Entity TYPE -->
<g id="entity-TYPE">
	<g id="frame-TYPE">
		<rect x="93" y="9" width="46" height="25" fill="#dfc27d" stroke="#dfc27d" stroke-width="0"/>
		<rect x="93" y="34.0" width="46" height="25" fill="#f6e8c3" stroke="#f6e8c3" stroke-width="0"/>
		<rect x="93" y="9" width="46" height="50" fill="none" stroke="#bf812d" stroke-width="2"/>
		<line x1="93" y1="34" x2="139" y2="34" stroke="#bf812d" stroke-width="1"/>
	</g>
	<text x="100" y="26.7" fill="#000000" font-family="Verdana" font-size="12">TYPE</text>
	<text x="98" y="51.8" fill="#000000" font-family="Verdana" font-size="12">name</text>
	<line x1="98" y1="54" x2="133" y2="54" stroke="#000000" stroke-width="1"/>
</g>

<!-- Entity USERS -->
<g id="entity-USERS">
	<g id="frame-USERS">
		<rect x="405" y="143" width="80" height="25" fill="#dfc27d" stroke="#dfc27d" stroke-width="0"/>
		<rect x="405" y="168.0" width="80" height="111" fill="#f6e8c3" stroke="#f6e8c3" stroke-width="0"/>
		<rect x="405" y="143" width="80" height="136" fill="none" stroke="#bf812d" stroke-width="2"/>
		<line x1="405" y1="168" x2="485" y2="168" stroke="#bf812d" stroke-width="1"/>
	</g>
	<text x="424" y="160.7" fill="#000000" font-family="Verdana" font-size="12">USERS</text>
	<text x="410" y="185.7" fill="#000000" font-family="Verdana" font-size="12">pseudo</text>
	<line x1="410" y1="188" x2="454" y2="188" stroke="#000000" stroke-width="1"/>
	<text x="410" y="202.7" fill="#000000" font-family="Verdana" font-size="12">email</text>
	<text x="410" y="219.8" fill="#000000" font-family="Verdana" font-size="12">avatar</text>
	<text x="410" y="236.8" fill="#000000" font-family="Verdana" font-size="12">password</text>
	<text x="410" y="253.8" fill="#000000" font-family="Verdana" font-size="12">created_at</text>
	<text x="410" y="270.8" fill="#000000" font-family="Verdana" font-size="12">updated_at</text>
</g>
</svg>