<svg id="Calque_1" data-name="Calque 1" xmlns="http://www.w3.org/2000/svg" xmlns:xlink="http://www.w3.org/1999/xlink" viewBox="0 0 214.91 173.77"><defs><style>.cls-1,.cls-4{fill:none;}.cls-2{fill:#ce6b14;}.cls-3{clip-path:url(#clip-path);}.cls-4{stroke:#ca711d;stroke-miterlimit:10;}.cls-5{fill:#224824;}</style><clipPath id="clip-path" transform="translate(-1808.71 -952)"><polygon class="cls-1" points="2013.97 1146.8 1885.56 1134.96 1889.82 1075.56 2002.33 1078.78 2013.97 1146.8"/></clipPath></defs><title>logo-plantopia</title><path class="cls-2" d="M1868.21,975.2c1.34,1.45,1.19,3.15-.43,4.64l-1.48,1.36,1.78,1.94-1.08,1-5.92-6.43,2.56-2.36C1865.26,973.86,1866.92,973.81,1868.21,975.2Zm-1,1c-0.78-.85-1.71-0.73-2.7.18l-1.43,1.32,2.34,2.54,1.43-1.32C1867.83,978,1868,977.06,1867.19,976.19Z" transform="translate(-1808.71 -952)"/><path class="cls-2" d="M1871.15,969.22l4.32,6,3.07-2.21,0.78,1.09-4.27,3.07-5.1-7.1Z" transform="translate(-1808.71 -952)"/><path class="cls-2" d="M1886.49,967.7l-3.88,2.1,0.2,2.13-1.35.73-0.76-9.53,1.33-.72,7.52,5.87-1.38.75Zm-1.12-.89-3.3-2.63,0.4,4.2Z" transform="translate(-1808.71 -952)"/><path class="cls-2" d="M1891,958.26l6.56,4.29-2.16-5.9,1.36-.5,3,8.21-1.36.5-6.53-4.29,2.16,5.89-1.38.51-3-8.21Z" transform="translate(-1808.71 -952)"/><path class="cls-2" d="M1908.07,953.35l0.29,1.29-2.71.6,1.6,7.24-1.44.32-1.6-7.24-2.7.6-0.29-1.29Z" transform="translate(-1808.71 -952)"/><path class="cls-2" d="M1918.82,952.09l0.12,1.32-4.75.45,0.22,2.35,4.25-.4,0.12,1.32-4.25.4,0.23,2.4,4.9-.46,0.12,1.32-6.37.6-0.82-8.7Z" transform="translate(-1808.71 -952)"/><path class="cls-2" d="M1926.82,953.38c-0.86,0-1.43.28-1.45,0.86-0.06,1.91,4.69,1,4.57,4.19-0.05,1.56-1.46,2.47-3.38,2.41a5.37,5.37,0,0,1-3.52-1.5l0.68-1.25a4.61,4.61,0,0,0,2.92,1.37c1,0,1.65-.33,1.67-1,0.06-1.95-4.69-1-4.58-4.13,0-1.5,1.37-2.39,3.26-2.33a5.69,5.69,0,0,1,3,1l-0.65,1.28A5.23,5.23,0,0,0,1926.82,953.38Z" transform="translate(-1808.71 -952)"/><path class="cls-2" d="M1945.38,963.87c-0.36-.59-0.71-1.12-1-1.61a3.83,3.83,0,0,1-2.83.53,2.55,2.55,0,0,1-2.12-3c0.28-1.2,1.31-1.64,2.39-1.93a3.41,3.41,0,0,1-.35-2.16,2,2,0,0,1,2.66-1.4,2,2,0,0,1,1.73,2.29c-0.27,1.17-1.44,1.54-2.61,1.84,0.34,0.63.79,1.38,1.35,2.27a7.72,7.72,0,0,0,1.13-1.35l0.75,0.9a8,8,0,0,1-1.27,1.41l1.07,1.68Zm-1.61-2.55c-0.65-1.05-1.17-1.9-1.56-2.64a2,2,0,0,0-1.62,1.25,1.5,1.5,0,0,0,1.23,1.8A2.61,2.61,0,0,0,1943.77,961.32Zm-0.93-3.74c0.93-.23,1.72-0.51,1.9-1.26a1,1,0,0,0-.82-1.17,1.06,1.06,0,0,0-1.36.77A2.71,2.71,0,0,0,1942.84,957.59Z" transform="translate(-1808.71 -952)"/><path class="cls-2" d="M1963.52,963.69a1.91,1.91,0,0,1-2.21,1.13,2.12,2.12,0,0,1,.78,2.79c-0.63,1.36-2.1,1.67-3.9.84l-3.53-1.62,3.66-7.94,3.45,1.59C1963.41,961.23,1964.09,962.45,1963.52,963.69Zm-2.73,3.12c0.32-.7-0.11-1.41-1.15-1.89l-2-.94-1.05,2.28,2,0.94C1959.64,967.67,1960.45,967.55,1960.79,966.8Zm1.25-3.51c0.31-.67,0-1.27-0.89-1.66l-2-.94-1,2.1,2,0.94A1.25,1.25,0,0,0,1962,963.29Z" transform="translate(-1808.71 -952)"/><path class="cls-2" d="M1974.1,972.67a4.64,4.64,0,1,1-1.48-6.22A4.47,4.47,0,0,1,1974.1,972.67Zm-6.52-4.23a3.13,3.13,0,0,0,.94,4.32A3.1,3.1,0,1,0,1967.59,968.44Z" transform="translate(-1808.71 -952)"/><path class="cls-2" d="M1978.23,980.16a2.15,2.15,0,0,0,3.3-.23l3.4-3.83,1.1,1-3.4,3.83a3.81,3.81,0,0,1-5.69-5.05l3.4-3.83,1.1,1-3.4,3.83A2.18,2.18,0,0,0,1978.23,980.16Z" transform="translate(-1808.71 -952)"/><path class="cls-2" d="M1993.71,985.56l-1,.87-1.81-2.1-5.62,4.85-1-1.12,5.62-4.85-1.8-2.09,1-.87Z" transform="translate(-1808.71 -952)"/><path class="cls-2" d="M1992.25,996.42a2.15,2.15,0,0,0,3.24.64l4.28-2.81,0.81,1.23-4.28,2.81a3.8,3.8,0,0,1-4.17-6.36l4.28-2.81,0.81,1.23-4.28,2.81A2.18,2.18,0,0,0,1992.25,996.42Z" transform="translate(-1808.71 -952)"/><path class="cls-2" d="M1997.71,1009.08l1.72-2.57c-0.06-.11-0.12-0.23-0.18-0.36l-0.88-1.88-2.39,1.12-0.63-1.33,7.92-3.71,1.51,3.21c0.95,2,.51,3.65-1.21,4.46a2.81,2.81,0,0,1-3.34-.44l-1.81,3Zm2.74-3.49c0.57,1.22,1.42,1.68,2.5,1.17s1.21-1.42.64-2.64l-0.88-1.88-3.13,1.47Z" transform="translate(-1808.71 -952)"/><path class="cls-2" d="M2010,1017.7l-1.26.4-1.43-4.55-2.25.71,1.28,4.07-1.26.4-1.28-4.07-2.3.72,1.48,4.69-1.26.4-1.92-6.1,8.34-2.63Z" transform="translate(-1808.71 -952)"/><path class="cls-2" d="M2010.46,1025.79c-0.15-.85-0.57-1.34-1.15-1.24-1.88.34,0,4.8-3.13,5.35-1.54.28-2.73-.9-3.07-2.8a5.37,5.37,0,0,1,.73-3.76l1.37,0.4a4.61,4.61,0,0,0-.73,3.14c0.18,1,.67,1.54,1.34,1.42,1.92-.35,0-4.8,3.07-5.35,1.47-.27,2.62.83,3,2.7a5.69,5.69,0,0,1-.34,3.17l-1.39-.37A5.21,5.21,0,0,0,2010.46,1025.79Z" transform="translate(-1808.71 -952)"/><g class="cls-3"><circle class="cls-4" cx="115.44" cy="87.46" r="85.81"/></g><path class="cls-2" d="M1872.43,1107.89a14,14,0,0,0-5.48-.3,9.87,9.87,0,0,1-1.3.15,0.91,0.91,0,0,1-1-1,1,1,0,0,1,1.07-.87,0.9,0.9,0,0,1,.53.09c1.54,1.13,3.36,1,5.12,1.23a32.89,32.89,0,0,1,3.26.7,3.26,3.26,0,0,0-2.8-2l-1-.1c-0.66-.07-1.39-0.23-1.18-1.05s1-.71,1.57-0.55c0.37,0.09.69,0.37,1.06,0.51-1.29-1.34-2.51-2.8-4.66-2.71a3.08,3.08,0,0,1-.87-0.1c-0.54-.13-1-0.4-0.83-1a1,1,0,0,1,1.3-.7,3.86,3.86,0,0,1,1.52.84,27.52,27.52,0,0,0,2.42,1.8c-0.78-2.08-1.1-4.28-2.3-6.15a1.34,1.34,0,0,1,0-1.64,0.79,0.79,0,0,1,1-.18,1.46,1.46,0,0,1,1,1.44,4.48,4.48,0,0,1-.19,1.29c-0.55,1.71.27,3.1,1,4.54a17.31,17.31,0,0,1,.79-3.38,4.32,4.32,0,0,1,1.28-2c0.5-.42,1-0.66,1.47.05a1,1,0,0,1-.37,1.6l-0.2.1c-0.66.29-1.63,0-1.93,1a6.88,6.88,0,0,0-.14,4.61,4.39,4.39,0,0,0,1.1,1.69c0.35-.38.22-1.47,1.15-1a1.28,1.28,0,0,1,.48,1.82,1.36,1.36,0,0,0,.41,1.74,33.41,33.41,0,0,0,4.06,3.5c-1.11-2.5-2.12-5.05-4-7.11a3.87,3.87,0,0,1-1-1.31,0.91,0.91,0,0,1,.46-1.36,1,1,0,0,1,1.34.64,4.18,4.18,0,0,1,.22,1.72,3.72,3.72,0,0,0,1.08,2.38c-0.15-2-.28-3.64-0.4-5.33a9.82,9.82,0,0,1-.06-1.52,0.85,0.85,0,0,1,1-.92,1,1,0,0,1,.8,1.15,3,3,0,0,1-.51,1.31c-0.74,1.38-.81,1.95-0.37,3.83a17.65,17.65,0,0,1,1.29-2.11,2.49,2.49,0,0,1,1.21-.9,0.91,0.91,0,0,1,1.3.61,0.89,0.89,0,0,1-.78,1.11l-0.32.06a2.54,2.54,0,0,0-2.44,3.06,11.65,11.65,0,0,0,2.83,6.06,1.41,1.41,0,0,1,.61,1.1c-1.14-.89-2.25-1.68-3.25-2.59a2.41,2.41,0,0,0-3-.47l-0.1,0a1.28,1.28,0,0,1-1.44,0,0.55,0.55,0,0,1-.19-0.69,1.45,1.45,0,0,1,1.24-.78c0.32,0,.64,0,1-0.06a3.92,3.92,0,0,0-4.87-.91,7.74,7.74,0,0,0-2.38,1.72,2.65,2.65,0,0,1-1.24.87,0.81,0.81,0,0,1-1.08-.48,0.64,0.64,0,0,1,.58-0.88C1869.18,1109.81,1870.6,1108.42,1872.43,1107.89Z" transform="translate(-1808.71 -952)"/><path class="cls-2" d="M1846.3,1065.67a4.21,4.21,0,0,0-1.44-2.79,19.79,19.79,0,0,1-4-7.08,3.29,3.29,0,0,1-.36-1.63c1.94,2.24,3.16,4.92,4.69,7.55,0.17-1.24-.6-2-1-2.84a21.79,21.79,0,0,1-2.33-6.84c-0.14-.92-0.48-1.78-0.62-2.72a7.65,7.65,0,0,1,2,3.21c0.47,1.17.74,2.41,1.15,3.62-0.1-3.6-.23-7.2,1.37-10.56a0.52,0.52,0,0,1,.52-0.4c-0.48,4.6-1.22,9.17-1,13.81,1.1-3.33,1.48-6.88,3.29-10,0.4,0.18.24,0.46,0.23,0.67a21.72,21.72,0,0,1-2.83,9.76,3.26,3.26,0,0,0,.09,3.2,8.88,8.88,0,0,0,1-2.54,11.35,11.35,0,0,1,3.35-5.6,1.22,1.22,0,0,1,.91-0.47,0.5,0.5,0,0,1,0,.22c-2.3,2.63-3,6.11-4.88,9-0.49.75,0,1.44,0.27,2s0.42-.09.52-0.25a13.94,13.94,0,0,0,1.85-4.12,17.83,17.83,0,0,1,1.61-3.84,1.79,1.79,0,0,1,.69-0.89,0.22,0.22,0,0,1,.16.3,32.48,32.48,0,0,0-1.07,4.59,7.9,7.9,0,0,1-2.65,4.44,1.55,1.55,0,0,0-.46,2.06c0.22,0.49.38,1,.7,1.6a13.92,13.92,0,0,1,4.86-7.91l0.22,0.12c-0.43.81-.84,1.62-1.29,2.42a41.92,41.92,0,0,1-3.36,5.8c-0.48.61,0,1.24,0.32,1.75,0.18,0.28.38-.14,0.5-0.3a21,21,0,0,0,2.8-5.47,1.06,1.06,0,0,1,.42-0.8,1.18,1.18,0,0,1,.25,1.17c-0.37,2.42-1,4.69-3.35,6a0.48,0.48,0,0,0-.19.75c0.33,0.77.64,1.56,1,2.38a0.47,0.47,0,0,1-.57-0.48,4.48,4.48,0,0,0-3.25-3.33,13.16,13.16,0,0,1-4.35-3.07c-0.17-.16-0.57-0.31-0.34-0.63s0.44,0,.66.1a18.59,18.59,0,0,1,5,3.13,2.14,2.14,0,0,0,.89.58,2,2,0,0,0-1.25-1.88,9.62,9.62,0,0,1-3.51-3c-1.14-1.37-2.2-2.8-3.29-4.22a2.81,2.81,0,0,1-.19-0.57c3,1.86,4.84,4.55,7.29,7-0.31-1.36-.59-2.35-1.81-3a10.3,10.3,0,0,1-3.46-3.54,10,10,0,0,1-1.9-3.69C1842.63,1060.45,1844.11,1063.24,1846.3,1065.67Z" transform="translate(-1808.71 -952)"/><path class="cls-2" d="M1856.4,1094.37a6.55,6.55,0,0,0,1.45-.16,4.15,4.15,0,0,0,2.2-1.67,1.49,1.49,0,0,0,.18-0.54,12.87,12.87,0,0,0,2.33,2.47,5.36,5.36,0,0,0,2.3,1.2,0.2,0.2,0,0,0,.24-0.16,0.2,0.2,0,0,0-.16-0.24,4.75,4.75,0,0,1-2.11-1.11,12.44,12.44,0,0,1-1-.89,0.55,0.55,0,0,0,.18,0c1.25,0.07.5-3.2,0.2-3.74a0.11,0.11,0,0,0-.05-0.06,0.12,0.12,0,0,0-.12.1c-0.15.41-.86,2.54-0.49,3.36a12.47,12.47,0,0,1-1-1.25,15.31,15.31,0,0,1-.94-1.51,0.88,0.88,0,0,0,.76-0.29,5.35,5.35,0,0,0,1.38-2.52,13.91,13.91,0,0,0,.37-3.39c0-.6,0-1.21,0-1.83a8.68,8.68,0,0,0-.2-1.37,0.35,0.35,0,0,0-.65-0.16,10.33,10.33,0,0,0-1.65,2.67,10.89,10.89,0,0,0-.85,5.12l-0.47-1c-0.31-.69-0.64-1.4-1-2.09a17.67,17.67,0,0,0-1.22-2.06h0.06a0.89,0.89,0,0,0,.48-0.92q0-.83-0.06-1.65a22.38,22.38,0,0,0-1.46-6.49,0.2,0.2,0,0,0-.1-0.11,0.39,0.39,0,0,0-.36,0,0.84,0.84,0,0,0-.34.62,18.08,18.08,0,0,0,.27,5.48c0,0.14.06,0.3,0.09,0.47,0.06,0.35.13,0.73,0.22,1.1a7.77,7.77,0,0,0-2.43-1.75,13.34,13.34,0,0,0-4.46-.85,0.2,0.2,0,0,0-.21.27,6.44,6.44,0,0,0,6.84,4.18,1.58,1.58,0,0,0,.94-0.41,16.69,16.69,0,0,1,1.38,2.29c0.25,0.5.5,1,.73,1.53l-0.1-.07c-0.42-.3-0.78-0.69-1.23-1a3.62,3.62,0,0,0-2.53-.32,10.83,10.83,0,0,0-2.44.92l-2,.93a1.21,1.21,0,0,0,.9.78,7.22,7.22,0,0,0,3,.21,15,15,0,0,0,3.55-.81,4.93,4.93,0,0,0,.85-0.34l0.13-.09,0.12,0.27a35.21,35.21,0,0,0,1.6,3.22,3.81,3.81,0,0,0-1-.28,3.88,3.88,0,0,0-2,.21,6.29,6.29,0,0,0-3,2.92,0.57,0.57,0,0,0-.08.45,0.53,0.53,0,0,0,.61.31Zm-0.23-12a0.56,0.56,0,0,1-.2.53h-0.05a45,45,0,0,1-.87-6.28v-0.11a6.47,6.47,0,0,0-.33-1.93l0,0A22,22,0,0,1,1856.17,1082.35Zm-1.17-1.73c0-.18-0.06-0.34-0.09-0.49a17.8,17.8,0,0,1-.31-2.27,17.57,17.57,0,0,1,0-3.09,0.61,0.61,0,0,1,0-.08,6.81,6.81,0,0,1,.28,1.8v0.11a45,45,0,0,0,.86,6.22,0.85,0.85,0,0,1-.19-0.19A5.45,5.45,0,0,1,1855,1080.62Zm-2.77-.21a7.38,7.38,0,0,1,2.31,1.66c-1.46-.73-2.91-1.48-4.35-2.24A8.36,8.36,0,0,1,1852.23,1080.42Zm-2.34-.62c1.6,0.85,3.23,1.69,4.85,2.5l0.33,0.38a12.79,12.79,0,0,0-2-.86l-0.68-.26c-0.46-.19-0.92-0.42-1.36-0.64s-0.62-.32-0.94-0.46c-0.61-.28-1.25-0.51-1.88-0.73l0-.08C1848.78,1079.67,1849.33,1079.71,1849.89,1079.79Zm-1.58,0c0.6,0.21,1.2.43,1.78,0.7,0.31,0.14.63,0.3,0.93,0.46s0.9,0.46,1.37.65l0.68,0.26a10.93,10.93,0,0,1,2.19,1h0a0.59,0.59,0,0,1-.14.14,13.72,13.72,0,0,1-2.08-.25,8.78,8.78,0,0,1-2.16-.7,12.07,12.07,0,0,1-2.07-1.39A5.47,5.47,0,0,1,1848.31,1079.84ZM1849,1081a10.76,10.76,0,0,0,1.79,1.17,8.87,8.87,0,0,0,2.19.71,13.85,13.85,0,0,0,1.91.25,2,2,0,0,1-.42.1A6,6,0,0,1,1849,1081Zm11.76,0.88,0.16-.24c0,0.42,0,.82,0,1.21a11.36,11.36,0,0,1,0,1.76,26.88,26.88,0,0,1-.64,3.95,1.71,1.71,0,0,1-.84,1.1l-0.09-.13A23.81,23.81,0,0,1,1860.8,1081.89Zm0.89,2.11a13.58,13.58,0,0,1-.36,3.29,5,5,0,0,1-1.26,2.33,0.47,0.47,0,0,1-.45.18l-0.09-.05a1.82,1.82,0,0,0,.86-1.15,27,27,0,0,0,.64-4,11.46,11.46,0,0,0,0-1.78c0-.43,0-0.88,0-1.36,0.13-.18.27-0.36,0.42-0.53A12.48,12.48,0,0,1,1861.69,1084Zm-1.75-.51a10.19,10.19,0,0,1,.62-1.21,23.94,23.94,0,0,0-1.27,7,2.57,2.57,0,0,1-.14-0.6q0-.17,0-0.35A10.5,10.5,0,0,1,1859.94,1083.49Zm-5.24,9.16a6.9,6.9,0,0,1,5.13-.9,0.73,0.73,0,0,1,0,.18c-0.34,0-.7,0-1,0a7.7,7.7,0,0,0-1.88.18,6.31,6.31,0,0,0-3,1.57,7.82,7.82,0,0,1,.73-1.06h0Zm-0.88,1.34a5.94,5.94,0,0,1,3.13-1.75,7.61,7.61,0,0,1,1.85-.18c0.31,0,.62,0,0.94,0a7,7,0,0,1-2.19,1.1A19.76,19.76,0,0,1,1853.81,1094Zm5.89-1.65a3.73,3.73,0,0,1-1.95,1.47,6.19,6.19,0,0,1-1.36.15l-2.11.07a19.85,19.85,0,0,0,3.29-.8,7,7,0,0,0,2.23-1.12A1.21,1.21,0,0,1,1859.7,1092.34Zm-3.06-1.2a3.46,3.46,0,0,1,1.82-.19,1.67,1.67,0,0,1,1.35.69,7,7,0,0,0-5,.81A4.82,4.82,0,0,1,1856.64,1091.14Z" transform="translate(-1808.71 -952)"/><path class="cls-5" d="M1822.39,1014.66a16.25,16.25,0,0,1,2-6.36q2.2-3.74,5.81-3.75a10.62,10.62,0,0,1,8.43,3.9q3.61,4.25,3.61,11.69a16.62,16.62,0,0,1-3.33,9.78q-3.9,5.53-9.85,5.53-3.12,0-5-3.32a15.57,15.57,0,0,1-1.7-5.37v19.46a5,5,0,0,0,.21,1.85,1.47,1.47,0,0,0,.64.43,23.94,23.94,0,0,0,6.17.5v0.64h-20.7V1049q2.05,0,3.72-.14a11.75,11.75,0,0,0,2.87-.57,3,3,0,0,0,.43-2.06v-36.77a3.46,3.46,0,0,0-.43-2,1.9,1.9,0,0,0-.85-0.71,27.25,27.25,0,0,0-5.67-.36v-0.64l13.61-1.2v10.11Zm0.43,5.56q0,7.12,1.62,10.83t4.44,3.7a4.69,4.69,0,0,0,4.69-3.17q1.3-3.17,1.3-11.5,0-7.55-.78-10.54-1.13-4.34-4.65-4.34-2.4,0-4.3,3.63Q1822.82,1013.17,1822.82,1020.22Z" transform="translate(-1808.71 -952)"/><path class="cls-5" d="M1858.26,1031.41a5,5,0,0,0,.21,1.85,1.46,1.46,0,0,0,.64.43,23.88,23.88,0,0,0,6.17.5v0.64h-20.7v-0.64q2.05,0,3.72-.14a11.62,11.62,0,0,0,2.87-.57,3,3,0,0,0,.43-2.06v-38a3.45,3.45,0,0,0-.43-2,1.9,1.9,0,0,0-.85-0.71,27.25,27.25,0,0,0-5.67-.36v-0.64l13.61-1.2v42.88Z" transform="translate(-1808.71 -952)"/><path class="cls-5" d="M1885.4,1014.23v-4.13q0-2.85-.9-3.84t-3.9-1a9.26,9.26,0,0,0-4.28.94,4.6,4.6,0,0,0-2.41,2.53,3,3,0,0,1,.71-0.07,2.69,2.69,0,0,1,2.2,1.06,3.76,3.76,0,0,1,.85,2.41,3.32,3.32,0,0,1-1.07,2.55,3.57,3.57,0,0,1-2.5,1,2.81,2.81,0,0,1-1.65-.5,4,4,0,0,1-2.08-3.4,7.28,7.28,0,0,1,.42-2.27q1-2.76,5-4a18.48,18.48,0,0,1,5.74-.92q5.24,0,7.94,2a5.33,5.33,0,0,1,2.41,4.45v15.63a36.12,36.12,0,0,0,.21,5.23q0.5,2.41,2.55,2.4a2.46,2.46,0,0,0,2.48-1.9,18.2,18.2,0,0,0,.64-5.5q0-1,0-2c0-.66,0-1.34,0-2v-0.63h0.85v3.12q0,1.49.07,2.84,0,4.11-1,5.53-1.28,1.77-5.2,1.77a8,8,0,0,1-4.56-1.05,6.44,6.44,0,0,1-2.35-4.28,8.18,8.18,0,0,1-4.47,4.64,13.19,13.19,0,0,1-4.75.7,9.33,9.33,0,0,1-5.17-1.42,6.41,6.41,0,0,1-3-5.82,8.29,8.29,0,0,1,3-6.46,12.29,12.29,0,0,1,7.2-2.91,17,17,0,0,0,5.72-1.14Q1885.4,1016.93,1885.4,1014.23Zm-0.21,12.82v-9.47a3.66,3.66,0,0,1-2.52,1.39l-3.22.46a5.33,5.33,0,0,0-3.26,2.28,10.75,10.75,0,0,0-1.42,6q0,4.13.82,5.59a2.75,2.75,0,0,0,2.59,1.46,6.6,6.6,0,0,0,4.86-2.24A7.56,7.56,0,0,0,1885.19,1027.05Z" transform="translate(-1808.71 -952)"/><path class="cls-5" d="M1912.62,1017.44v14a5,5,0,0,0,.21,1.85,1.47,1.47,0,0,0,.67.43,8,8,0,0,0,1.91.36,24,24,0,0,0,2.44.14v0.64h-18.14v-0.64q1.56,0,3.08-.14a11.28,11.28,0,0,0,2.73-.57,3,3,0,0,0,.43-2.07v-21.59q0-.64,0-1.28a1.72,1.72,0,0,0-.32-1l-0.42-.71q-0.71-.5-5.39-0.5v-0.64l12.83-1.13v9a13.93,13.93,0,0,1,1.84-5.37q2-3.25,4.18-3.5t2.84-.25a9.43,9.43,0,0,1,7.09,2.7,7.51,7.51,0,0,1,2.2,5.4v18.83a5,5,0,0,0,.21,1.85,1.52,1.52,0,0,0,.71.43,9.18,9.18,0,0,0,2.06.35q1.49,0.14,2.84.14v0.64h-18.15v-0.64q1.13,0,2.62-.14a10.18,10.18,0,0,0,2.62-.57,3.05,3.05,0,0,0,.42-2.07v-18a18.13,18.13,0,0,0-.57-5.2q-0.92-2.92-3.4-2.92-3.26,0-5.32,4.06A25,25,0,0,0,1912.62,1017.44Z" transform="translate(-1808.71 -952)"/><path class="cls-5" d="M1958,1019.72V1023q0,1.63.07,3.12,0,5-1.13,6.8-1.56,2.55-6,2.55-4.25,0-6.24-2.06a8.13,8.13,0,0,1-2-5.88v-20.13h-5.67v-0.64a13.22,13.22,0,0,0,8.76-6.76,19.48,19.48,0,0,0,2.37-9.61h1.21v15h8.15v2.06h-8.15v19.23a26.58,26.58,0,0,0,.28,4.95q0.7,2.69,3.13,2.69,2.86,0,3.76-3.1a33.56,33.56,0,0,0,.63-8v-3.39H1958Z" transform="translate(-1808.71 -952)"/><path class="cls-5" d="M1932.33,1055.57a15.12,15.12,0,0,1-4.75,11.41,13.78,13.78,0,0,1-19.35.28,15.2,15.2,0,0,1-4.82-11.7,14.89,14.89,0,0,1,4.75-11.34,13.87,13.87,0,0,1,19.35-.21A14.9,14.9,0,0,1,1932.33,1055.57Zm-7.37,0q0-7.87-1.35-11.06a5.72,5.72,0,0,0-5.74-3.69,5.6,5.6,0,0,0-5.46,3.54q-1.63,3.55-1.63,11.2t1.45,11.34q1.45,3.54,5.63,3.54a5.6,5.6,0,0,0,5.46-3.62Q1925,1063.23,1925,1055.57Z" transform="translate(-1808.71 -952)"/><path class="cls-5" d="M1947.07,1050.3a16.25,16.25,0,0,1,2-6.36q2.2-3.74,5.81-3.75a10.62,10.62,0,0,1,8.43,3.9q3.62,4.25,3.61,11.69a16.62,16.62,0,0,1-3.33,9.78q-3.9,5.53-9.85,5.53-3.12,0-5-3.32a15.58,15.58,0,0,1-1.7-5.37v19.46a5,5,0,0,0,.21,1.85,1.47,1.47,0,0,0,.64.43,24,24,0,0,0,6.17.5v0.64h-20.7v-0.64q2.06,0,3.72-.14a11.75,11.75,0,0,0,2.87-.57,3,3,0,0,0,.42-2.06v-36.77a3.45,3.45,0,0,0-.42-2,1.9,1.9,0,0,0-.85-0.71,27.25,27.25,0,0,0-5.67-.36v-0.64l13.61-1.2v10.11Zm0.42,5.56q0,7.12,1.62,10.83t4.44,3.7a4.69,4.69,0,0,0,4.69-3.17q1.3-3.17,1.3-11.5,0-7.55-.78-10.54-1.13-4.34-4.65-4.34-2.4,0-4.3,3.63Q1947.5,1048.81,1947.5,1055.86Z" transform="translate(-1808.71 -952)"/><path class="cls-5" d="M1982.94,1040.19V1067a5,5,0,0,0,.21,1.85,1.46,1.46,0,0,0,.64.43,23.85,23.85,0,0,0,6.17.5v0.64h-20.7v-0.64q2.06,0,3.72-.14a11.6,11.6,0,0,0,2.87-.57,3.07,3.07,0,0,0,.42-2.07v-22.14a3.24,3.24,0,0,0-.28-1.71,2.13,2.13,0,0,0-.92-0.86,28.31,28.31,0,0,0-5.81-.36v-0.64Zm-3.72-16a3.8,3.8,0,0,1,2.81,1.13,4.14,4.14,0,0,1,0,5.67,4,4,0,0,1-5.62,0,4.14,4.14,0,0,1,0-5.67A3.79,3.79,0,0,1,1979.22,1024.17Z" transform="translate(-1808.71 -952)"/><path class="cls-5" d="M2010.44,1049.87v-4.13q0-2.85-.9-3.84t-3.9-1a9.26,9.26,0,0,0-4.27.94,4.61,4.61,0,0,0-2.41,2.53,3,3,0,0,1,.71-0.07,2.69,2.69,0,0,1,2.2,1.06,3.76,3.76,0,0,1,.85,2.41,3.32,3.32,0,0,1-1.07,2.55,3.57,3.57,0,0,1-2.5,1,2.81,2.81,0,0,1-1.65-.5,4,4,0,0,1-2.08-3.4,7.28,7.28,0,0,1,.43-2.27q1-2.76,5-4a18.49,18.49,0,0,1,5.74-.92q5.24,0,7.94,2a5.33,5.33,0,0,1,2.41,4.45v15.63a35.93,35.93,0,0,0,.21,5.23q0.49,2.41,2.55,2.4a2.46,2.46,0,0,0,2.48-1.9,18.17,18.17,0,0,0,.64-5.5q0-1,0-2t0-2v-0.63h0.85V1061q0,1.49.07,2.83,0,4.11-1,5.53-1.28,1.77-5.2,1.77a8,8,0,0,1-4.56-1.05,6.45,6.45,0,0,1-2.35-4.28,8.18,8.18,0,0,1-4.47,4.64,13.18,13.18,0,0,1-4.75.7,9.33,9.33,0,0,1-5.17-1.42,6.41,6.41,0,0,1-3-5.82,8.29,8.29,0,0,1,3-6.46,12.29,12.29,0,0,1,7.2-2.91,17.05,17.05,0,0,0,5.72-1.14Q2010.44,1052.57,2010.44,1049.87Zm-0.21,12.82v-9.47a3.66,3.66,0,0,1-2.52,1.39l-3.22.46a5.33,5.33,0,0,0-3.26,2.28,10.76,10.76,0,0,0-1.42,6q0,4.13.82,5.59a2.75,2.75,0,0,0,2.59,1.46,6.6,6.6,0,0,0,4.86-2.24A7.56,7.56,0,0,0,2010.22,1062.69Z" transform="translate(-1808.71 -952)"/><path class="cls-5" d="M1979.09,1021.08a0.76,0.76,0,0,0,.21-0.81c0-2.48,1.36-4.07,3.42-5.19,0.43-.23.87-0.45,1.3-0.68s0.82-.19.7,0.41a19.39,19.39,0,0,1-1.27,4.91,4.4,4.4,0,0,1-2.76,2.06,1.74,1.74,0,0,0-1.27,2.4,7.75,7.75,0,0,1,.58,2.6l-0.25.07a18.83,18.83,0,0,1-.72-2.85c-0.2-2-.87-3.21-3.15-3.51-1.67-.22-2.69-1.74-3.35-3.31-0.38-.9-0.73-1.82-1.1-2.72a0.61,0.61,0,0,1-.09-0.64,0.59,0.59,0,0,1,.64,0,8,8,0,0,1,6.39,6c0-1,0-2,.11-3a4.49,4.49,0,0,0-.85-2.82,4.93,4.93,0,0,1,.3-4.88,9.59,9.59,0,0,1,2.51-2.86c0.58-.47.9-0.46,1.14,0.37,1,3.37.5,6.34-2.31,8.7a0.78,0.78,0,0,0-.35.56,27.08,27.08,0,0,0,0,5A0.66,0.66,0,0,0,1979.09,1021.08Zm0-6.25a6.42,6.42,0,0,0,2-7.94A30.91,30.91,0,0,0,1979.06,1014.83Zm1.49-8a7.24,7.24,0,0,0-1.84,1.87,4.87,4.87,0,0,0-.73,5.13c0.11,0.25.13,0.67,0.49,0.64s0.29-.46.35-0.72A35.8,35.8,0,0,1,1980.54,1006.81Zm3.61,8.26a26.09,26.09,0,0,0-4,5.88c-0.07.14-.19,0.33,0,0.44a0.6,0.6,0,0,0,.46,0,3.94,3.94,0,0,0,2.79-2.51C1983.76,1017.71,1983.89,1016.47,1984.15,1015.07Zm-6.56,5.41a49.61,49.61,0,0,0-5.28-5.29C1973.06,1018.46,1974.79,1020.22,1977.6,1020.49Zm0.17-.52c-0.54-3-3.09-5.42-5.51-5.44C1974,1016.36,1976,1017.9,1977.77,1020Zm5.47-4.57c-2.54,1.23-3.85,3.21-3.33,5.18A53.89,53.89,0,0,1,1983.24,1015.39Z" transform="translate(-1808.71 -952)"/><path class="cls-5" d="M1979.22,1024.17a3.8,3.8,0,0,1,2.81,1.13,4.14,4.14,0,0,1,0,5.67,4,4,0,0,1-5.62,0,4.14,4.14,0,0,1,0-5.67A3.79,3.79,0,0,1,1979.22,1024.17Z" transform="translate(-1808.71 -952)"/></svg>